Coordinates
version=1
nRows=16
nColumns=40
inDegrees=yes

Units are S.I. units (second, meters, Newtons, ...)
Angles are in degrees.

endheader
time	pelvis_tilt	pelvis_list	pelvis_rotation	pelvis_tx	pelvis_ty	pelvis_tz	hip_flexion_r	hip_adduction_r	hip_rotation_r	knee_angle_r	knee_angle_r_beta	ankle_angle_r	subtalar_angle_r	mtp_angle_r	hip_flexion_l	hip_adduction_l	hip_rotation_l	knee_angle_l	knee_angle_l_beta	ankle_angle_l	subtalar_angle_l	mtp_angle_l	lumbar_extension	lumbar_bending	lumbar_rotation	arm_flex_r	arm_add_r	arm_rot_r	elbow_flex_r	pro_sup_r	wrist_flex_r	wrist_dev_r	arm_flex_l	arm_add_l	arm_rot_l	elbow_flex_l	pro_sup_l	wrist_flex_l	wrist_dev_l
     56.99750000	     -6.14283186	     -6.78566092	      1.88247305	      1.05407254	      0.93028863	      0.52457468	     11.55477390	      5.61422312	    -17.94172934	     13.90745490	     13.90745490	     10.63151230	      5.92168865	     -1.03182221	     38.88650795	    -15.21612991	      2.86235804	     61.52170742	     61.52170742	      4.34936411	    -16.20999568	      6.05505403	    -12.86127819	      6.01401234	      3.31714618	     22.22931613	    -17.88078267	     -0.17381935	     67.76218278	     44.96783039	      0.00000000	      0.00000000	      1.43803354	     -8.14206298	     -2.13146149	     36.52311446	     47.27388367	      0.00000000	      0.00000000
     57.00957143	     -6.35565147	     -6.69861503	      2.03353836	      1.05253044	      0.93023277	      0.52443297	     10.93180442	      5.63086714	    -17.99221482	     13.20048628	     13.20048628	     10.68553325	      6.18896549	     -1.53460809	     39.85320257	    -14.82900189	      2.71565384	     58.59213566	     58.59213566	      4.63787505	    -15.93933987	      6.54607917	    -12.83447902	      5.95376955	      3.79765054	     24.24571693	    -18.65902479	      0.67947073	     69.72435049	     44.90846577	      0.00000000	      0.00000000	      1.30419918	     -7.81303633	     -3.08506068	     32.46074213	     47.31895572	      0.00000000	      0.00000000
     57.02164286	     -6.55236917	     -6.63222293	      2.18452349	      1.05107611	      0.93003099	      0.52421259	     10.26573671	      5.68227832	    -17.96873659	     12.46799689	     12.46799689	     10.90801313	      6.42511958	     -1.58461447	     40.59978611	    -14.40557876	      2.66627690	     55.31389531	     55.31389531	      4.85679899	    -15.57353608	      6.90822915	    -12.85000210	      5.90027436	      3.81913663	     26.55947941	    -18.58131772	      0.51131895	     71.42912891	     44.87392696	      0.00000000	      0.00000000	     -0.08528955	     -7.98966202	     -3.21655224	     31.30793724	     47.29703580	      0.00000000	      0.00000000
     57.03371429	     -6.76517600	     -6.63494679	      2.32411211	      1.04970731	      0.92955566	      0.52388430	      9.60793112	      5.79366587	    -18.05584194	     11.73083760	     11.73083760	     11.12868697	      6.77374529	     -1.72896444	     41.19909633	    -14.03523188	      2.69316118	     51.77760158	     51.77760158	      5.07293700	    -14.99112503	      7.20332697	    -12.83351230	      5.92742681	      3.86394130	     28.80795639	    -18.65210834	      0.66291726	     73.32431206	     44.82381667	      0.00000000	      0.00000000	     -1.36269530	     -8.11965479	     -3.32994962	     30.05417038	     47.27202189	      0.00000000	      0.00000000
     57.04578571	     -7.10632063	     -6.61735913	      2.39101477	      1.04831837	      0.92864973	      0.52347896	      9.22315329	      5.83586737	    -18.01713561	     11.26850751	     11.26850751	     11.47399708	      6.95438986	     -1.87260696	     41.76484442	    -13.67606817	      2.67971269	     48.05568848	     48.05568848	      5.35080907	    -14.14286567	      7.55521438	    -12.64418408	      5.90883211	      4.33230977	     30.96928959	    -19.02917750	      0.51552023	     74.58016450	     44.79979735	      0.00000000	      0.00000000	     -2.53452547	     -8.21249669	     -3.36354206	     29.38898933	     47.24943182	      0.00000000	      0.00000000
     57.05785714	     -7.15224147	     -6.67196998	      2.50984420	      1.04739696	      0.92805602	      0.52295393	      8.26798827	      6.02328039	    -18.14929172	     10.37185978	     10.37185978	     11.71962498	      7.55689837	     -2.05623573	     41.76225478	    -13.32890672	      2.86435009	     44.05400534	     44.05400534	      5.65564574	    -13.30700809	      7.88390672	    -12.77138167	      6.00611390	      4.08734028	     33.08780623	    -18.74138244	      1.09451941	     77.13982570	     44.71353466	      0.00000000	      0.00000000	     -3.93845040	     -8.41999463	     -3.35873037	     28.31763611	     47.20689325	      0.00000000	      0.00000000
     57.06992857	     -7.48685097	     -6.86743054	      2.54626301	      1.04637244	      0.92660906	      0.52239301	      7.94926513	      6.26335275	    -18.15713394	     10.09530195	     10.09530195	     12.15444363	      7.69311752	     -2.27986817	     42.05465998	    -13.17363183	      3.04048773	     40.13953644	     40.13953644	      5.98642585	    -12.19842174	      8.31355206	    -12.48080371	      6.25291583	      4.64600530	     35.08971902	    -19.14497459	      0.95897038	     78.25329287	     44.69281917	      0.00000000	      0.00000000	     -5.06300063	     -8.48998231	     -3.37352441	     27.87874942	     47.18345598	      0.00000000	      0.00000000
     57.08200000	     -7.48121946	     -6.88870624	      2.62310456	      1.04598473	      0.92562998	      0.52159093	      6.87184619	      6.40013822	    -18.34236992	      9.15017770	      9.15017770	     12.40251063	      8.52997658	     -2.66230444	     41.67352935	    -12.88367050	      3.06521260	     36.09561589	     36.09561589	      6.41969669	    -11.10133017	      8.94908021	    -12.66924249	      6.30711489	      4.45002199	     36.94733474	    -19.25925835	      2.28742968	     81.75405058	     44.56467846	      0.00000000	      0.00000000	     -6.55294006	     -8.64925563	     -3.20220940	     27.52023723	     47.09122195	      0.00000000	      0.00000000
     57.09407143	     -7.55132760	     -7.02473008	      2.64775052	      1.04570245	      0.92423377	      0.52078335	      6.11889521	      6.60831701	    -18.32657646	      8.68822423	      8.68822423	     12.82327256	      8.82719738	     -3.01400037	     41.33853065	    -12.75439167	      3.01058259	     32.26404527	     32.26404527	      6.88758845	     -9.97058952	      9.95475165	    -12.66865301	      6.48585590	      4.61861130	     38.75356335	    -19.36376094	      2.69193065	     83.95941759	     44.51176255	      0.00000000	      0.00000000	     -7.93268110	     -8.79593679	     -2.93082561	     27.48068416	     46.98552083	      0.00000000	      0.00000000
     57.10614286	     -7.57887742	     -7.15671983	      2.64920746	      1.04579827	      0.92270073	      0.51988711	      5.34927574	      6.79420050	    -18.20390313	      8.34497812	      8.34497812	     13.34437243	      8.99459015	     -3.25448413	     40.86461584	    -12.66703774	      2.78746593	     28.68446932	     28.68446932	      7.24521817	     -8.92356276	     10.90099201	    -12.64143430	      6.62031214	      4.74725997	     40.56048618	    -19.15839460	      2.81184383	     85.70533373	     44.46973595	      0.00000000	      0.00000000	     -9.25082121	     -8.89785584	     -2.77489342	     27.25727708	     46.92085596	      0.00000000	      0.00000000
     57.11821429	     -7.58596085	     -7.40671567	      2.67857067	      1.04620859	      0.92096939	      0.51885714	      4.53259763	      7.10659830	    -18.11100066	      7.96826155	      7.96826155	     13.83068525	      9.18446298	     -3.50369255	     40.46588402	    -12.68335577	      2.48875549	     25.68104058	     25.68104058	      7.76911387	     -7.97449063	     12.40611436	    -12.59735397	      6.95548730	      4.73788027	     42.19879011	    -19.01521766	      3.32809364	     88.15438736	     44.40449936	      0.00000000	      0.00000000	    -10.81083042	     -9.03018784	     -2.41028538	     27.54450916	     46.80235046	      0.00000000	      0.00000000
     57.13028571	     -7.54452616	     -7.53903136	      2.65953457	      1.04695826	      0.91924275	      0.51774063	      3.77472767	      7.24700891	    -17.89705922	      7.87610789	      7.87610789	     14.46701426	      9.16654895	     -3.73181832	     39.91621503	    -12.63988250	      1.86669840	     23.07286339	     23.07286339	      7.98089514	     -7.19740923	     13.32781766	    -12.51959857	      7.08145185	      4.88797570	     43.64710412	    -18.79735741	      3.41222227	     89.63373664	     44.37071116	      0.00000000	      0.00000000	    -12.08320951	     -9.10940971	     -2.23276403	     27.40556346	     46.73937564	      0.00000000	      0.00000000
     57.14235714	     -7.51996517	     -7.70288739	      2.68774289	      1.04801535	      0.91742711	      0.51640169	      3.04837830	      7.39466780	    -17.68933507	      7.84568468	      7.84568468	     15.03915010	      9.04953244	     -3.89473514	     39.41411639	    -12.58876485	      1.13524116	     20.99531571	     20.99531571	      8.01948856	     -6.57658953	     14.03454862	    -12.34064678	      7.29048942	      4.88856819	     45.07018658	    -18.45408649	      3.51541101	     91.23417349	     44.33012952	      0.00000000	      0.00000000	    -13.23845563	     -9.10651638	     -2.08774602	     27.29484019	     46.68573289	      0.00000000	      0.00000000
     57.15442857	     -7.44647009	     -7.81022170	      2.71850117	      1.04935823	      0.91566267	      0.51498476	      2.27735456	      7.47700450	    -17.37220870	      7.87036028	      7.87036028	     15.69687775	      8.82507162	     -3.98569488	     38.91896481	    -12.49074819	      0.30579951	     19.56757329	     19.56757329	      7.85462345	     -6.14611838	     14.60886249	    -12.23664430	      7.40580355	      4.72457737	     46.17347530	    -17.94310873	      3.78801860	     93.25595916	     44.27302497	      0.00000000	      0.00000000	    -14.62156123	     -9.13130451	     -1.90114188	     27.28734901	     46.61778659	      0.00000000	      0.00000000
     57.16650000	     -7.43036424	     -7.89652578	      2.76273069	      1.05094928	      0.91383751	      0.51336996	      1.60887538	      7.50308755	    -17.11065555	      8.00514807	      8.00514807	     16.33779064	      8.54256655	     -4.02346587	     38.52080053	    -12.34675582	     -0.51659596	     18.70557477	     18.70557477	      7.51632561	     -5.92982870	     14.82941484	    -11.99143894	      7.52134217	      4.62525937	     47.13473389	    -17.55004421	      3.92979435	     94.98985831	     44.22711126	      0.00000000	      0.00000000	    -15.76939216	     -9.11567495	     -1.75222194	     27.28349041	     46.56364327	      0.00000000	      0.00000000
     57.17857143	     -7.41767591	     -7.93826547	      2.78477788	      1.05277099	      0.91205779	      0.51169462	      0.97518211	      7.45975140	    -16.79327814	      8.23698524	      8.23698524	     17.01558916	      8.17768214	     -3.96018883	     38.15023752	    -12.18384736	     -1.31219238	     18.33991990	     18.33991990	      6.89161708	     -5.89831544	     14.62955148	    -11.73749052	      7.51221039	      4.43645560	     47.76733918	    -17.08396491	      4.07831468	     96.88912433	     44.17649871	      0.00000000	      0.00000000	    -16.93582454	     -9.11863789	     -1.59805638	     27.31607969	     46.50748144	      0.00000000	      0.00000000
